<?xml version="1.0" encoding="iso-8859-1"?>
<!-- Generator: Adobe Illustrator 16.0.0, SVG Export Plug-In . SVG Version: 6.00 Build 0)  -->
<!DOCTYPE svg PUBLIC "-//W3C//DTD SVG 1.1//EN" "http://www.w3.org/Graphics/SVG/1.1/DTD/svg11.dtd">
<svg version="1.1" id="Capa_1" xmlns="http://www.w3.org/2000/svg" xmlns:xlink="http://www.w3.org/1999/xlink" x="0px" y="0px"
	 width="48.59px" height="48.59px" viewBox="0 0 48.59 48.59" style="enable-background:new 0 0 48.59 48.59;" xml:space="preserve"
	>
<g>
	<g>
		<path d="M29.462,11.82c0-2.85-2.318-5.168-5.168-5.168c-2.849,0-5.167,2.318-5.167,5.168s2.318,5.168,5.167,5.168
			C27.144,16.988,29.462,14.67,29.462,11.82z M24.293,15.088c-1.801,0-3.267-1.466-3.267-3.268c0-1.801,1.466-3.267,3.267-3.267
			c1.802,0,3.268,1.466,3.268,3.267C27.562,13.622,26.096,15.088,24.293,15.088z"/>
		<path d="M27.681,23.139c5.003-1.488,8.436-6.039,8.436-11.318C36.116,5.303,30.812,0,24.293,0c-6.517,0-11.82,5.303-11.82,11.82
			c0,5.009,3.216,9.491,7.905,11.144V48.59h7.302V45.9h8.078v-6.857h-8.078v-1.104h8.078v-6.856h-8.078V23.139z M33.858,32.984
			v3.055H25.78v4.904h8.078v3.056H25.78v2.69h-3.5V21.552l-0.69-0.196c-4.249-1.21-7.216-5.129-7.216-9.536
			c0-5.469,4.451-9.92,9.92-9.92c5.47,0,9.921,4.451,9.921,9.92c0,4.57-3.237,8.633-7.698,9.659l-0.736,0.17v11.335H33.858z"/>
	</g>
</g>
<g>
</g>
<g>
</g>
<g>
</g>
<g>
</g>
<g>
</g>
<g>
</g>
<g>
</g>
<g>
</g>
<g>
</g>
<g>
</g>
<g>
</g>
<g>
</g>
<g>
</g>
<g>
</g>
<g>
</g>
</svg>
